<svg xmlns="http://www.w3.org/2000/svg" xmlns:svg="http://www.w3.org/2000/svg" id="svg4" width="16" height="16" fill="gray" version="1.1" viewBox="0 0 16 16"><metadata id="metadata10"/><g id="g917" transform="translate(-4,-3)"><path id="path2896" d="M 10,9 C 8.892,9 8,9.892 8,11 v 2 c 0,1.108 0.892,2 2,2 h 2 c 1.108,0 2,-0.892 2,-2 V 11 C 14,9.892 13.108,9 12,9 Z m 0,1 h 2 c 0.554,0 1,0.446 1,1 v 2 c 0,0.554 -0.446,1 -1,1 H 10 C 9.446,14 9,13.554 9,13 v -2 c 0,-0.554 0.446,-1 1,-1 z"/><path id="path2898" d="m 12,7 c -1.108,0 -2,0.892 -2,2 h 1 c 0,-0.554 0.446,-1 1,-1 h 2 c 0.554,0 1,0.446 1,1 v 2 c 0,0.554 -0.446,1 -1,1 v 1 c 1.108,0 2,-0.892 2,-2 V 9 C 16,7.892 15.108,7 14,7 Z" opacity=".35"/></g></svg>